<?xml version="1.0" standalone="no"?><!DOCTYPE svg PUBLIC "-//W3C//DTD SVG 1.1//EN" "http://www.w3.org/Graphics/SVG/1.1/DTD/svg11.dtd"><svg t="1626601672184" class="icon" viewBox="0 0 1024 1024" version="1.1" xmlns="http://www.w3.org/2000/svg" p-id="2771" xmlns:xlink="http://www.w3.org/1999/xlink" width="200" height="200"><defs><style type="text/css"></style></defs><path d="M736 896a32 32 0 0 1 0 64A672 672 0 0 1 64 288a32 32 0 0 1 64 0 608 608 0 0 0 608 608zM576 544a32 32 0 0 1 0 64 160 160 0 0 1-160-160 32 32 0 0 1 64 0 96 96 0 0 0 96 96z" p-id="2772" fill="#ffffff"></path><path d="M384 288a128 128 0 1 0-128 128 128 128 0 0 0 128-128z m64 0A192 192 0 1 1 256 96a192 192 0 0 1 192 192z m384 496a112 112 0 1 0-112 112 112 112 0 0 0 112-112z m64 0a176 176 0 1 1-176-176 176 176 0 0 1 176 176z" p-id="2773" fill="#ffffff"></path></svg>